<?xml version="1.0" encoding="UTF-8"?>
<svg id="Layer_1" xmlns="http://www.w3.org/2000/svg" version="1.1" viewBox="0 0 200 150">
  <!-- Generator: Adobe Illustrator 29.2.1, SVG Export Plug-In . SVG Version: 2.1.0 Build 116)  -->
  <defs>
    <style>
      .st0 {
        fill: #eb5771;
      }

      .st1 {
        stroke-width: .5px;
      }

      .st1, .st2, .st3 {
        fill: #fff;
      }

      .st1, .st4 {
        stroke: #fff;
      }

      .st1, .st4, .st5 {
        stroke-miterlimit: 10;
      }

      .st4, .st6 {
        fill: none;
      }

      .st5 {
        stroke: #000;
      }

      .st3 {
        opacity: .25;
      }
    </style>
  </defs>
  <circle cx="133.272" cy="60.473" r="42.095"/>
  <path d="M74.045,32.263h-.247l-13.99,7.552-2.105-8.295,17.581-9.409h9.286v80.474h-10.524V32.263Z"/>
  <g>
    <path d="M22.554,117.326c0-1.833.034-3.667-.011-5.499-.035-1.396,1.001-2.363,2.278-2.512,2.327-.272,4.65-.581,6.975-.874,2.754-.348,5.508-.694,8.262-1.044,2.607-.332,5.212-.672,7.819-1.003,2.708-.343,5.416-.686,8.126-1.015,1.453-.176,2.786.188,4.062.889,2.732,1.5,5.479,2.972,8.228,4.44.641.342,1.315.623,1.973.932,1.193.56,1.778,1.487,1.774,2.816-.012,3.563.003,7.127-.001,10.69-.002,1.288-.784,2.192-2.122,2.45-.725.139-1.462.222-2.188.356-.184.034-.38.135-.52.262-.696.631-1.296,1.399-2.271,1.631-.485.115-.982.22-1.477.238-.943.035-1.889.018-2.832-.005-.684-.017-1.305-.273-1.912-.576-.16-.08-.369-.133-.542-.107-4.116.618-8.23,1.25-12.346,1.876-4.193.638-8.387,1.273-12.58,1.907-.749.113-1.389-.136-1.947-.626-1.522-1.336-3.041-2.675-4.565-4.008-.908-.794-1.8-1.608-2.74-2.362-1.022-.82-1.408-1.907-1.425-3.15-.026-1.901-.007-3.802-.007-5.704-.003,0-.005,0-.008,0ZM30.465,129.554c.012-.173.025-.27.025-.366.002-3.347.002-6.693.005-10.04,0-.204.038-.41.021-.612-.013-.15-.043-.337-.139-.435-.453-.463-.941-.892-1.397-1.353-.348-.351-.335-.87-.004-1.196.32-.316.81-.32,1.17.004.33.297.672.586.963.918.285.325.551.467.933.17.075-.059.191-.076.291-.091.618-.092,1.236-.183,1.856-.264,2.041-.267,4.083-.528,6.124-.793,2.718-.353,5.437-.708,8.155-1.061,2.549-.332,5.099-.658,7.646-1.002.181-.024.383-.138.511-.271.907-.944,1.947-1.691,3.272-1.823,1.517-.151,3.047-.177,4.555.14,1.04.218,1.958.668,2.613,1.546.238.319.484.633.697.968.299.469.618.934.845,1.438,1.308,2.896,1.443,5.887.638,8.935-.152.577-.383,1.133-.59,1.737.313-.048.604-.079.889-.138.657-.137.828-.358.828-1.033,0-3.426,0-6.853-.001-10.279,0-.17-.021-.34-.029-.511-.014-.312-.154-.517-.444-.664-.882-.448-1.755-.913-2.626-1.383-2.762-1.491-5.524-2.98-8.279-4.484-.847-.462-1.737-.68-2.693-.566-2.101.249-4.2.51-6.298.775-2.754.348-5.506.707-8.259,1.057-2.234.284-4.469.559-6.703.843-2.617.333-5.234.671-7.851,1.007-.714.092-1.428.186-2.214.289.561.499,1.081.922,1.548,1.397.172.175.286.464.31.712.03.311-.172.562-.468.691-.302.131-.605.119-.866-.101-.406-.342-.804-.695-1.279-1.107,0,.203,0,.322,0,.441,0,3.153-.001,6.306.002,9.46,0,.284.02.569.046.852.055.586.264,1.078.739,1.478,1.331,1.121,2.635,2.275,3.951,3.415.485.421.971.841,1.507,1.305ZM55.179,115.254c-.916.117-1.794.227-2.672.342-3.236.423-6.472.85-9.709,1.272-3.282.428-6.565.853-9.847,1.281-.527.069-.782.354-.785.891-.004.751.008,1.502.008,2.253-.001,3.096-.006,6.192-.006,9.289,0,.708.368,1.009,1.067.903,3.429-.521,6.859-1.038,10.289-1.558,3.89-.59,7.78-1.182,11.669-1.774.512-.078,1.023-.161,1.546-.243-2.865-3.945-3.368-8.136-1.56-12.655ZM60.69,115.92c.954-.153,1.736.137,2.351.801.335.362.65.777.85,1.223.838,1.877.822,3.78-.019,5.651-.434.965-1.101,1.735-2.2,1.973-.313.068-.645.047-1.004.069.404.74.889,1.388,1.591,1.843.869.564,1.766.613,2.669.076.94-.56,1.519-1.424,1.953-2.392.826-1.842,1.055-3.779.824-5.771-.183-1.579-.629-3.075-1.606-4.364-.603-.795-1.339-1.391-2.399-1.443-1.273-.062-2.543,1.208-3.008,2.335ZM63.124,120.52c-.038-.255-.073-.747-.189-1.218-.168-.682-.461-1.312-1.031-1.766-.497-.396-1.01-.389-1.485.03-.723.639-1.031,1.488-1.137,2.413-.139,1.212-.037,2.399.668,3.442.783,1.159,1.741,1.125,2.494-.058.507-.796.647-1.688.679-2.842ZM60.267,113.106c-.021-.029-.042-.058-.063-.087-.338.122-.693.211-1.011.372-1.21.611-1.97,1.648-2.473,2.855-1.314,3.152-1.079,6.243.526,9.233.555,1.033,1.289,1.928,2.352,2.496.098.052.204.088.307.132-1.75-2.253-2.375-4.825-2.33-7.577.046-2.766.747-5.326,2.693-7.424Z"/>
    <path class="st2" d="M30.465,129.554c-.536-.464-1.022-.884-1.507-1.305-1.315-1.14-2.619-2.294-3.951-3.415-.475-.4-.683-.892-.739-1.478-.027-.283-.046-.568-.046-.852-.003-3.153-.002-6.306-.002-9.46,0-.119,0-.237,0-.441.475.413.873.765,1.279,1.107.261.22.564.233.866.101.296-.129.498-.38.468-.691-.024-.248-.138-.538-.31-.712-.468-.475-.988-.898-1.548-1.397.786-.103,1.5-.197,2.214-.289,2.617-.336,5.234-.675,7.851-1.007,2.234-.284,4.469-.559,6.703-.843,2.753-.35,5.506-.709,8.259-1.057,2.098-.265,4.198-.526,6.298-.775.956-.113,1.846.104,2.693.566,2.755,1.504,5.517,2.993,8.279,4.484.871.47,1.744.936,2.626,1.383.289.147.429.352.444.664.008.17.029.34.029.511.002,3.426.001,6.853.001,10.279,0,.676-.171.896-.828,1.033-.285.06-.576.091-.889.138.208-.604.438-1.16.59-1.737.805-3.048.67-6.039-.638-8.935-.228-.504-.547-.969-.845-1.438-.213-.335-.459-.649-.697-.968-.655-.878-1.573-1.328-2.613-1.546-1.508-.317-3.039-.291-4.555-.14-1.325.132-2.364.879-3.272,1.823-.128.133-.33.247-.511.271-2.547.344-5.097.671-7.646,1.002-2.718.354-5.436.708-8.155,1.061-2.041.265-4.083.526-6.124.793-.62.081-1.238.172-1.856.264-.1.015-.215.032-.291.091-.382.296-.648.155-.933-.17-.291-.332-.633-.621-.963-.918-.36-.324-.85-.32-1.17-.004-.331.326-.344.845.004,1.196.456.461.944.889,1.397,1.353.096.098.126.285.139.435.017.202-.021.408-.021.612-.003,3.347-.003,6.693-.005,10.04,0,.097-.013.193-.025.366Z"/>
    <path class="st2" d="M55.179,115.254c-1.808,4.519-1.305,8.709,1.56,12.655-.523.082-1.034.166-1.546.243-3.89.592-7.779,1.184-11.669,1.774-3.429.52-6.859,1.037-10.289,1.558-.699.106-1.067-.195-1.067-.903,0-3.096.005-6.192.006-9.289,0-.751-.012-1.502-.008-2.253.003-.537.258-.822.785-.891,3.282-.428,6.565-.852,9.847-1.281,3.237-.422,6.473-.849,9.709-1.272.878-.115,1.756-.225,2.672-.342ZM38.07,122.018c.131-.015.312-.035.492-.058,1.668-.214,3.337-.428,5.005-.643,2.254-.291,4.509-.581,6.762-.88.528-.07.834-.462.771-.938-.064-.479-.455-.767-.987-.706-.881.1-1.76.21-2.64.323-2.209.284-4.417.571-6.626.858-1.003.13-2.008.249-3.008.403-.491.075-.768.477-.708.925.059.444.409.726.939.716ZM38.022,125.204c.95-.121,1.92-.243,2.89-.368,2.402-.309,4.805-.62,7.207-.93.733-.094,1.468-.18,2.2-.282.668-.093,1.005-.75.659-1.289-.241-.376-.611-.416-1.024-.362-2.955.386-5.911.764-8.867,1.144-1.049.135-2.098.269-3.147.409-.518.069-.837.427-.805.886.032.458.398.793.887.792ZM38.089,128.37c.463-.059.981-.124,1.5-.191,2.583-.332,5.166-.664,7.749-.997,1.015-.131,2.031-.258,3.044-.401.487-.069.789-.49.718-.952-.068-.444-.471-.745-.94-.698-.17.017-.339.039-.508.061-2.414.31-4.828.62-7.241.932-1.511.195-3.023.387-4.532.594-.49.067-.792.459-.743.902.052.464.409.764.953.752Z"/>
    <path class="st2" d="M60.69,115.92c.465-1.127,1.735-2.397,3.008-2.335,1.061.052,1.796.648,2.399,1.443.977,1.288,1.423,2.784,1.606,4.364.231,1.992.002,3.929-.824,5.771-.434.968-1.013,1.833-1.953,2.392-.903.538-1.799.488-2.669-.076-.702-.455-1.186-1.103-1.591-1.843.359-.022.691,0,1.004-.069,1.099-.239,1.766-1.008,2.2-1.973.841-1.871.857-3.774.019-5.651-.199-.447-.515-.861-.85-1.223-.615-.664-1.397-.955-2.351-.801Z"/>
    <path class="st2" d="M63.124,120.52c-.032,1.154-.172,2.046-.679,2.842-.754,1.183-1.711,1.218-2.494.058-.705-1.044-.806-2.23-.668-3.442.106-.925.414-1.774,1.137-2.413.475-.419.988-.426,1.485-.03.57.454.863,1.085,1.031,1.766.116.472.151.963.189,1.218Z"/>
    <path class="st2" d="M60.267,113.106c-1.946,2.098-2.647,4.658-2.693,7.424-.046,2.753.58,5.324,2.33,7.577-.102-.044-.209-.08-.307-.132-1.063-.568-1.797-1.463-2.352-2.496-1.604-2.99-1.84-6.081-.526-9.233.503-1.207,1.263-2.244,2.473-2.855.318-.161.673-.25,1.011-.372.021.029.042.058.063.087Z"/>
    <path d="M38.07,122.018c-.53.01-.88-.272-.939-.716-.06-.448.218-.85.708-.925,1-.153,2.005-.272,3.008-.403,2.208-.287,4.417-.574,6.626-.858.879-.113,1.759-.222,2.64-.323.533-.061.923.228.987.706.064.476-.243.868-.771.938-2.253.299-4.508.588-6.762.88-1.668.216-3.336.429-5.005.643-.18.023-.361.042-.492.058Z"/>
    <path d="M38.022,125.204c-.489,0-.855-.333-.887-.792-.032-.459.287-.817.805-.886,1.048-.14,2.098-.274,3.147-.409,2.956-.381,5.912-.758,8.867-1.144.414-.054.783-.014,1.024.362.346.539.009,1.196-.659,1.289-.732.102-1.466.188-2.2.282-2.402.31-4.805.62-7.207.93-.97.125-1.94.247-2.89.368Z"/>
    <path d="M38.089,128.37c-.544.012-.901-.288-.953-.752-.05-.443.253-.835.743-.902,1.51-.207,3.021-.399,4.532-.594,2.414-.312,4.828-.622,7.241-.932.169-.022.339-.044.508-.061.469-.047.872.254.94.698.071.462-.231.883-.718.952-1.013.144-2.029.27-3.044.401-2.583.333-5.166.665-7.749.997-.519.067-1.038.132-1.5.191Z"/>
  </g>
  <g>
    <path class="st5" d="M88.924,118.905v-5.666l-4.22-7.687h1.962l1.881,3.685c.515,1.01.912,1.822,1.327,2.753h.04c.377-.871.832-1.743,1.347-2.753l1.921-3.685h1.961l-4.476,7.667v5.685h-1.743Z"/>
    <path class="st5" d="M105.228,112.645h-5.191v4.814h5.785v1.446h-7.508v-13.352h7.211v1.446h-5.488v4.219h5.191v1.426Z"/>
    <path class="st5" d="M112.002,114.705l-1.386,4.2h-1.783l4.536-13.352h2.08l4.556,13.352h-1.842l-1.426-4.2h-4.735ZM116.38,113.358l-1.308-3.843c-.297-.872-.495-1.664-.693-2.437h-.04c-.198.792-.416,1.605-.674,2.417l-1.308,3.863h4.022Z"/>
    <path class="st5" d="M123.749,105.731c.872-.179,2.119-.278,3.308-.278,1.842,0,3.031.337,3.863,1.09.674.594,1.05,1.506,1.05,2.536,0,1.763-1.109,2.932-2.515,3.407v.059c1.03.357,1.644,1.308,1.961,2.694.436,1.862.753,3.15,1.03,3.665h-1.782c-.218-.376-.515-1.526-.892-3.189-.396-1.842-1.109-2.536-2.674-2.595h-1.625v5.784h-1.723v-13.173ZM125.472,111.813h1.763c1.842,0,3.011-1.01,3.011-2.536,0-1.724-1.248-2.476-3.071-2.496-.832,0-1.426.079-1.704.158v4.873Z"/>
    <path class="st5" d="M135.951,116.805c.773.475,1.902.872,3.09.872,1.764,0,2.794-.931,2.794-2.278,0-1.248-.713-1.961-2.516-2.655-2.179-.772-3.526-1.902-3.526-3.784,0-2.08,1.723-3.625,4.318-3.625,1.367,0,2.358.317,2.952.654l-.476,1.407c-.436-.238-1.327-.634-2.536-.634-1.822,0-2.516,1.09-2.516,2.001,0,1.248.812,1.862,2.655,2.575,2.258.871,3.407,1.961,3.407,3.922,0,2.06-1.525,3.843-4.675,3.843-1.287,0-2.694-.376-3.407-.852l.436-1.446Z"/>
  </g>
  <g>
    <path class="st6" d="M125.123,46.444s16.818-5.526,22.344,10.091c5.526,15.617-13.935,18.98-13.935,18.98,0,0-10.331.961-15.136-8.649"/>
    <path class="st1" d="M129.758,45.274c-.26.194-.807.44-1.54.571-1.699.305-3.17-.54-3.523-2.516-.339-1.886.711-3.394,2.58-3.729.751-.135,1.254-.059,1.479.012l-.074.668c-.32-.09-.76-.122-1.261-.032-1.413.253-2.189,1.324-1.906,2.907.265,1.475,1.283,2.271,2.75,2.008.474-.084.939-.27,1.225-.478l.271.588Z"/>
    <path class="st1" d="M132.098,39.375l.021,6.119-.789.002-.021-6.119.79-.002Z"/>
    <path class="st1" d="M133.962,45.459l1.367-5.965.841.192,1.22,3.457c.282.801.483,1.508.627,2.184l.02-.005c.111-.812.261-1.542.474-2.472l.572-2.496.726.167-1.368,5.965-.778-.179-1.2-3.461c-.264-.759-.506-1.532-.658-2.247l-.028.003c-.129.762-.275,1.483-.503,2.475l-.584,2.549-.726-.167Z"/>
    <path class="st1" d="M144.133,46.563l-1.987-1.307-1.212,1.843,2.214,1.457-.364.554-2.874-1.891,3.363-5.111,2.761,1.816-.364.554-2.101-1.382-1.063,1.616,1.987,1.307-.359.546Z"/>
    <path class="st1" d="M148.864,52.694c.688-.506,1.515-1.113,2.157-1.523l-.015-.023c-.714.219-1.49.424-2.364.629l-3.072.724-.328-.5,1.892-2.423c.562-.715,1.087-1.353,1.6-1.895l-.01-.015c-.647.403-1.529.927-2.325,1.384l-2.281,1.301-.413-.629,5.346-2.997.552.842-1.9,2.494c-.489.625-.937,1.167-1.383,1.645l.015.023c.601-.209,1.281-.396,2.075-.591l3.069-.711.552.842-4.902,3.671-.423-.645,2.16-1.601Z"/>
    <path class="st1" d="M149.633,56.874l-2.019-.165-.192-.793,6.434.58.224.926-5.453,3.468-.198-.82,1.716-1.088-.511-2.108ZM150.705,58.678l1.57-.996c.355-.227.687-.4,1.01-.572l-.005-.018c-.374-.003-.759-.012-1.148-.039l-1.86-.166.434,1.79Z"/>
    <path class="st1" d="M148.055,65.18l1.464-.545c.563-.227.929-.368,1.31-.498l.003-.018c-.32-.229-.614-.454-1.09-.856l-1.203-.949.15-.896,2.743,2.36,3.282-1.27-.152.904-1.55.559c-.433.158-.766.276-1.115.383l-.004.027c.329.23.581.43.929.718l1.276,1.063-.151.896-2.628-2.332-3.417,1.358.153-.905Z"/>
    <path class="st1" d="M152.037,70.845l-5.276-3.096.4-.681,5.275,3.096-.399.681Z"/>
    <path class="st1" d="M143.607,74.553c.563.643,1.24,1.417,1.705,2.022l.021-.017c-.279-.693-.551-1.45-.83-2.305l-.986-3.003.471-.371,2.581,1.68c.762.499,1.443.968,2.028,1.433l.015-.011c-.458-.611-1.057-1.446-1.581-2.201l-1.494-2.165.593-.466,3.449,5.077-.793.623-2.651-1.682c-.666-.436-1.246-.835-1.761-1.239l-.021.017c.261.581.505,1.244.768,2.02l.974,3.002-.792.623-4.085-4.577.606-.478,1.784,2.019Z"/>
    <path class="st1" d="M141.378,79.448l-2.488-5.595.722-.321,2.489,5.595-.723.321Z"/>
    <path class="st1" d="M138.731,80.485l-.759.219-1.514-5.246-2.514.725-.184-.637,3.273-.944,1.696,5.883Z"/>
    <path class="st1" d="M131.486,77.45l.87-1.83.811.102-2.823,5.809-.945-.118-1.31-6.328.838.105.408,1.99,2.151.27ZM129.42,77.813l.376,1.821c.085.413.13.785.176,1.147l.018.002c.136-.349.281-.706.444-1.06l.814-1.681-1.828-.229Z"/>
    <path class="st1" d="M125.207,75.939l1.439-1.426.728.371-4.629,4.507-.849-.433.916-6.398.753.383-.292,2.011,1.934.984ZM123.14,75.579l-.266,1.841c-.061.417-.145.782-.224,1.139l.016.008c.246-.282.504-.568.777-.847l1.338-1.305-1.642-.836Z"/>
  </g>
  <path class="st4" d="M151.431,44.161s-6.006-10.091-18.98-10.091c-9.798,0-15.334,7.129-17.07,10.818-.57,1.21-1.001,2.665-1.161,4.195-.448,4.285,1.024,13.438,12.465,15.981,9.701,2.156,10.569-1.856,9.942-5.016-.47-2.369-2.395-4.326-4.809-4.414-2.391-.087-5.309,1.626-5.613,5.826-.681,9.395,12.013,9.851,12.013,9.851"/>
  <path class="st0" d="M63.436,89.362"/>
  <polygon class="st3" points="61.177 121.953 68.942 16.378 85.038 26.252 158.463 92.835 155.025 95.823 155.208 98.172 156.452 99.884 158.463 100.52 160.939 104.576 158.958 109.043 61.177 121.953"/>
</svg>